<?xml version="1.0" encoding="utf-8"?>
<!-- Generator: Adobe Illustrator 25.2.3, SVG Export Plug-In . SVG Version: 6.00 Build 0)  -->
<svg version="1.1" id="Layer_1" xmlns="http://www.w3.org/2000/svg" xmlns:xlink="http://www.w3.org/1999/xlink" x="0px" y="0px"
	 viewBox="0 0 1000 1000" style="enable-background:new 0 0 1000 1000;" xml:space="preserve">
<style type="text/css">
	.st0{fill:#1E1E1E;}
	.st1{fill:#FFFFFF;}
</style>
<rect y="0" class="st0" width="1000" height="1000"/>
<path class="st1" d="M441.95,685.37c24.55,0,35.44-16.96,66.07-16.96c31.13,0,37.97,16.44,65.31,16.44
	c26.83,0,44.8-25.57,61.76-50.62c18.98-28.7,26.83-56.88,27.34-58.18c-1.77-0.52-53.16-22.18-53.16-82.97
	c0-52.7,40.5-76.44,42.78-78.27c-26.83-39.66-67.58-40.7-78.72-40.7c-30.12,0-54.68,18.79-70.12,18.79
	c-16.71,0-38.73-17.74-64.8-17.74c-49.61,0-99.98,42.27-99.98,122.1c0,49.57,18.73,102.01,41.77,135.93
	C399.92,661.89,417.14,685.37,441.95,685.37z M505.22,369.67c17.97,0,40.5-12.52,53.92-29.22c12.15-15.13,21.01-36.26,21.01-57.4
	c0-2.87-0.25-5.74-0.76-8.09c-20,0.78-44.04,13.83-58.47,31.31c-11.39,13.31-21.77,34.18-21.77,55.57c0,3.13,0.51,6.26,0.76,7.31
	C501.17,369.41,503.2,369.67,505.22,369.67z"/>
</svg>
