<?xml version="1.0" encoding="utf-8"?>
<!-- Generator: Adobe Illustrator 25.2.3, SVG Export Plug-In . SVG Version: 6.00 Build 0)  -->
<svg version="1.1" id="Layer_1" xmlns="http://www.w3.org/2000/svg" xmlns:xlink="http://www.w3.org/1999/xlink" x="0px" y="0px"
	 viewBox="0 0 1000 1000" style="enable-background:new 0 0 1000 1000;" xml:space="preserve">
<style type="text/css">
	.st0{fill:#1A78F3;}
	.st1{fill:#FFFFFF;}
</style>
<rect y="0" class="st0" width="1000" height="1000"/>
<path class="st1" d="M528.53,517.4c-5.41,0.16-5.81,5.35-5.81,8.09c-0.03,49.36-0.02,98.72-0.02,148.08
	c0,8.65-0.16,19.86-8.51,19.86c-26.92,0-14.19,0.43-51.15,0.43c-8.77,0-9.81,0.21-9.81-8.5c-0.01-53.64,0-107.29-0.01-160.93
	c0-8.07-0.15-8.22-8.07-8.23c-13.39-0.01-19.3,0.03-32.69,0.03c-9.39,0-8.63-0.86-8.94-8.72c-0.45-11.5-0.45-43.8-0.45-53.22
	c0-3.66,1.19-4.84,4.85-4.79c12.9,0.17,25.81-0.12,38.71,0.16c4.58,0.1,6.1-1.13,6.04-5.87c-0.21-18.25-0.55-36.52,0.18-54.74
	c1.69-42.11,24.92-69.69,66.12-79.72c17.15-4.17,34.54-3.21,51.9-2.71c7.28,0.21,13.79,1.02,21.81,1.59c3.36,0.24,4,1.57,3.93,4.49
	c-0.47,18.24-0.89,36.49-1.14,54.73c-0.05,3.63-1.68,4.21-4.84,4.21c-15.32,0.02-30.66-1.22-45.97,0.3
	c-12.72,1.27-18.88,7.22-20.02,19.88c-1.62,18.02-0.32,36.11-0.75,54.16c-0.1,4.33,2.82,3.56,5.31,3.57
	c20.2,0.03,40.4,0.01,60.6,0.02c7.22,0,7.6,0.04,6.87,7.34c-1.87,18.8-5.16,36.94-8.27,53.94c-1.09,5.99-3.08,6.39-8.07,6.41
	C558.68,517.37,549.29,517.35,528.53,517.4z"/>
</svg>
